<svg width="846" height="356" viewBox="0 0 846 356" fill="none" xmlns="http://www.w3.org/2000/svg">
<path d="M469.5 42.5C476.5 45 484.5 46.5 484.5 46.5V75.5L469.5 75V42.5Z" fill="#016833"/>
<path d="M489.5 47.8374C511.5 52.5 527.5 55.2738 527.5 55.2738V77L489.5 75.7123V47.8374Z" fill="#016833"/>
<path d="M532.5 56C532.5 56 549 58.5 564.5 60V76.7029L532.5 77V56Z" fill="#016833"/>
<path d="M593.5 78V93.5L569.5 97.5V79L593.5 78Z" fill="#016833"/>
<path d="M564.5 98.5L532.5 104.297V79.5L564.5 79V98.5Z" fill="#016833"/>
<path d="M484.5 79.5V113.711C484.5 113.711 469.5 116 464 117C464 117 468 103 469.5 79L484.5 79.5Z" fill="#016833"/>
<path d="M527.5 79.5V105.308L489.5 112.5V79.5H527.5Z" fill="#016833"/>
<path d="M593.5 95V107C587 108.5 582 110.01 577.4 111.31L569.5 113.5V99.75L593.5 95Z" fill="#016833"/>
<path d="M564.6 100.731V114.75C546.5 119.769 532.5 125.291 532.5 125.291V107.188C532.5 107.188 549 104 564.6 100.731Z" fill="#016833"/>
<path d="M527.5 127.373C513.5 133 499 139 489.5 143.5V115.249C497.5 113.749 527.5 108.16 527.5 108.16V127.373Z" fill="#016833"/>
<path d="M484.5 116.5C484.5 120.5 484.5 146.75 484.5 146.75C469.5 153.75 449.5 165.5 444 169C449.9 159.5 458.5 142.5 463.5 120.5L484.5 116.5Z" fill="#016833"/>
<path d="M593.5 62V76L569.5 76.6752V60.5L593.5 62Z" fill="#016833"/>
<rect x="323" y="97" width="8" height="20" rx="4" fill="#016833"/>
<rect x="335.25" y="82" width="8" height="50" rx="4" fill="#016833"/>
<rect x="347.5" y="87" width="8" height="40" rx="4" fill="#016833"/>
<rect x="359.75" y="72" width="8" height="70" rx="4" fill="#016833"/>
<rect x="372" y="57" width="8" height="100" rx="4" fill="#016833"/>
<rect x="384.25" y="72" width="8" height="70" rx="4" fill="#016833"/>
<rect x="396.5" y="87" width="8" height="40" rx="4" fill="#016833"/>
<rect x="408.75" y="82" width="8" height="50" rx="4" fill="#016833"/>
<rect x="421" y="97" width="8" height="20" rx="4" fill="#016833"/>
<path d="M374.6 11.11C372 13.5 361 22.21 352.9 26.51C337.2 34.81 319.4 40.01 300.9 41.41L292 42.21L292.6 67.81C293 82.91 293.8 97.41 294.7 103.11C300 136.11 312.5 161.51 332.7 180.11C342.9 189.61 359.6 199.31 371.1 202.51C376.8 204.11 377.5 204.11 382.5 202.51C408.8 194.01 432.4 173.21 445.3 147.11C454.9 127.51 458.8 109.91 460.4 79.41C461 67.81 461.3 54.81 461.1 50.41L460.8 42.41L449.8 41.21C423.3 38.31 399 28.31 380.5 12.71C376.9 9.61 376.351 9.5 374.6 11.11ZM382.8 29.41C396.3 39.11 419.8 48.51 437.8 51.61L448.5 53.41L448 76.41C447.4 106.81 444.4 121.61 434.7 141.21C423 165.11 404.3 182.11 381.4 190.01L376.1 191.91L368.9 189.01C346.8 180.11 330.1 164.21 318.8 141.41C308.9 121.31 305.1 102.31 304.9 71.91L304.8 53.41L312.8 52.21C334 49.01 354.4 41.01 370.8 29.51C373.6 27.61 376.3 26.01 376.8 26.01C377.4 25.91 380 27.51 382.8 29.41Z" fill="#016833"/>
<path d="M284 42.5C277 45 269 46.5 269 46.5V75.5L284 75V42.5Z" fill="#016833"/>
<path d="M264 47.8374C242 52.5 226 55.2738 226 55.2738V77L264 75.7123V47.8374Z" fill="#016833"/>
<path d="M221 56C221 56 204.5 58.5 189 60V76.7029L221 77V56Z" fill="#016833"/>
<path d="M160 78V93.5L184 97.5V79L160 78Z" fill="#016833"/>
<path d="M189 98.5L221 104.297V79.5L189 79V98.5Z" fill="#016833"/>
<path d="M269 79.5V113.711C269 113.711 284 116 289.5 117C289.5 117 285.5 103 284 79L269 79.5Z" fill="#016833"/>
<path d="M226 79.5V105.308L264 112.5V79.5H226Z" fill="#016833"/>
<path d="M160 95V107C166.5 108.5 171.5 110.01 176.1 111.31L184 113.5V99.75L160 95Z" fill="#016833"/>
<path d="M188.9 100.731V114.75C207 119.769 221 125.291 221 125.291V107.188C221 107.188 204.5 104 188.9 100.731Z" fill="#016833"/>
<path d="M226 127.373C240 133 254.5 139 264 143.5V115.249C256 113.749 226 108.16 226 108.16V127.373Z" fill="#016833"/>
<path d="M269 116.5C269 120.5 269 146.75 269 146.75C284 153.75 304 165.5 309.5 169C303.6 159.5 295 142.5 290 120.5L269 116.5Z" fill="#016833"/>
<path d="M160 62V76L184 76.6752V60.5L160 62Z" fill="#016833"/>
<path d="M418.674 292H411.094L422.643 258.545H431.759L443.291 292H435.712L427.332 266.19H427.07L418.674 292ZM418.2 278.85H436.104V284.371H418.2V278.85ZM467.097 292L456.349 277.739H453.931V292H446.858V258.545H453.931V271.908H455.352L466.46 258.545H475.265L462.213 274.064L475.869 292H467.097ZM482.576 292.457V286.707H484.389C485.293 286.707 486.023 286.598 486.578 286.381C487.134 286.152 487.575 285.82 487.902 285.384C488.239 284.938 488.522 284.382 488.751 283.718L489.159 282.624L477.006 258.545H484.324L492.198 275.011L498.781 258.545H506.001L494.468 285.433C493.913 286.675 493.254 287.829 492.492 288.896C491.74 289.964 490.777 290.824 489.6 291.477C488.424 292.131 486.921 292.457 485.092 292.457H482.576ZM536.864 270.258H529.709C529.578 269.332 529.311 268.51 528.909 267.791C528.506 267.062 527.988 266.441 527.357 265.929C526.725 265.417 525.995 265.025 525.168 264.753C524.351 264.481 523.463 264.344 522.505 264.344C520.774 264.344 519.265 264.775 517.98 265.635C516.695 266.484 515.699 267.726 514.991 269.359C514.283 270.982 513.929 272.953 513.929 275.273C513.929 277.658 514.283 279.661 514.991 281.284C515.71 282.907 516.712 284.132 517.997 284.96C519.282 285.787 520.768 286.201 522.456 286.201C523.404 286.201 524.28 286.076 525.086 285.825C525.903 285.575 526.627 285.21 527.259 284.731C527.89 284.241 528.413 283.647 528.827 282.95C529.252 282.253 529.546 281.458 529.709 280.565L536.864 280.598C536.679 282.134 536.216 283.615 535.475 285.041C534.746 286.457 533.76 287.726 532.519 288.847C531.288 289.958 529.818 290.84 528.108 291.494C526.409 292.136 524.487 292.457 522.342 292.457C519.358 292.457 516.69 291.782 514.338 290.432C511.996 289.081 510.145 287.127 508.784 284.567C507.433 282.008 506.758 278.91 506.758 275.273C506.758 271.625 507.444 268.521 508.816 265.962C510.188 263.402 512.051 261.453 514.403 260.114C516.755 258.763 519.401 258.088 522.342 258.088C524.28 258.088 526.077 258.36 527.732 258.905C529.399 259.449 530.874 260.244 532.159 261.29C533.444 262.324 534.49 263.593 535.296 265.096C536.112 266.599 536.635 268.319 536.864 270.258ZM540.202 264.377V258.545H567.678V264.377H557.435V292H550.444V264.377H540.202ZM571.742 258.545H578.799V279.585H579.077L593.534 258.545H599.725V292H592.652V270.944H592.406L577.868 292H571.742V258.545ZM606.464 258.545H613.342V269.327C613.342 270.612 613.565 271.646 614.011 272.43C614.458 273.204 615.149 273.764 616.086 274.113C617.033 274.451 618.248 274.619 619.729 274.619C620.251 274.619 620.867 274.603 621.575 274.57C622.282 274.527 623.012 274.467 623.763 274.391C624.526 274.314 625.245 274.222 625.92 274.113C626.595 274.004 627.156 273.879 627.602 273.737V279.324C627.145 279.476 626.573 279.612 625.887 279.732C625.212 279.841 624.499 279.939 623.747 280.026C622.996 280.103 622.266 280.162 621.558 280.206C620.85 280.25 620.24 280.271 619.729 280.271C617.039 280.271 614.697 279.89 612.704 279.128C610.712 278.355 609.171 277.162 608.082 275.55C607.003 273.939 606.464 271.864 606.464 269.327V258.545ZM626.377 258.545H633.287V292H626.377V258.545ZM639.822 292V258.545H662.365V264.377H646.896V272.349H661.205V278.18H646.896V286.168H662.43V292H639.822ZM697.046 270.258H689.891C689.761 269.332 689.494 268.51 689.091 267.791C688.688 267.062 688.171 266.441 687.539 265.929C686.907 265.417 686.178 265.025 685.35 264.753C684.533 264.481 683.646 264.344 682.688 264.344C680.956 264.344 679.448 264.775 678.163 265.635C676.878 266.484 675.881 267.726 675.173 269.359C674.465 270.982 674.112 272.953 674.112 275.273C674.112 277.658 674.465 279.661 675.173 281.284C675.892 282.907 676.894 284.132 678.179 284.96C679.464 285.787 680.951 286.201 682.639 286.201C683.586 286.201 684.463 286.076 685.269 285.825C686.085 285.575 686.809 285.21 687.441 284.731C688.073 284.241 688.595 283.647 689.009 282.95C689.434 282.253 689.728 281.458 689.891 280.565L697.046 280.598C696.861 282.134 696.398 283.615 695.658 285.041C694.928 286.457 693.943 287.726 692.701 288.847C691.47 289.958 690 290.84 688.291 291.494C686.592 292.136 684.67 292.457 682.524 292.457C679.54 292.457 676.872 291.782 674.52 290.432C672.179 289.081 670.327 287.127 668.966 284.567C667.616 282.008 666.94 278.91 666.94 275.273C666.94 271.625 667.626 268.521 668.999 265.962C670.371 263.402 672.233 261.453 674.585 260.114C676.938 258.763 679.584 258.088 682.524 258.088C684.463 258.088 686.26 258.36 687.915 258.905C689.581 259.449 691.057 260.244 692.342 261.29C693.627 262.324 694.672 263.593 695.478 265.096C696.295 266.599 696.818 268.319 697.046 270.258ZM721.898 292L711.149 277.739H708.731V292H701.658V258.545H708.731V271.908H710.153L721.261 258.545H730.065L717.013 274.064L730.67 292H721.898ZM733.767 258.545H740.823V279.585H741.101L755.558 258.545H761.749V292H754.676V270.944H754.431L739.892 292H733.767V258.545ZM767.133 292V258.545H789.675V264.377H774.206V272.349H788.516V278.18H774.206V286.168H789.741V292H767.133Z" fill="#016833"/>
<path d="M83.4283 294H75.1896L87.7429 257.636H97.6506L110.186 294H101.947L92.8388 265.946H92.5547L83.4283 294ZM82.9134 279.707H102.374V285.708H82.9134V279.707ZM144.938 270.367H137.161C137.019 269.361 136.729 268.467 136.291 267.686C135.853 266.893 135.291 266.218 134.605 265.662C133.918 265.106 133.125 264.679 132.225 264.384C131.338 264.088 130.373 263.94 129.331 263.94C127.449 263.94 125.81 264.407 124.413 265.342C123.016 266.266 121.933 267.615 121.164 269.391C120.394 271.154 120.009 273.297 120.009 275.818C120.009 278.411 120.394 280.589 121.164 282.352C121.945 284.116 123.034 285.448 124.431 286.347C125.827 287.247 127.443 287.697 129.278 287.697C130.308 287.697 131.261 287.561 132.137 287.288C133.024 287.016 133.811 286.62 134.498 286.099C135.185 285.566 135.753 284.921 136.203 284.163C136.664 283.406 136.984 282.542 137.161 281.571L144.938 281.607C144.737 283.276 144.234 284.885 143.429 286.436C142.636 287.975 141.565 289.354 140.215 290.573C138.878 291.781 137.28 292.739 135.421 293.45C133.575 294.148 131.485 294.497 129.154 294.497C125.91 294.497 123.01 293.763 120.453 292.295C117.908 290.828 115.896 288.703 114.416 285.921C112.949 283.139 112.215 279.772 112.215 275.818C112.215 271.853 112.96 268.479 114.452 265.697C115.943 262.916 117.968 260.797 120.524 259.341C123.081 257.873 125.958 257.139 129.154 257.139C131.261 257.139 133.214 257.435 135.013 258.027C136.824 258.619 138.428 259.483 139.825 260.619C141.222 261.744 142.358 263.123 143.234 264.756C144.122 266.39 144.69 268.26 144.938 270.367ZM183.868 275.818C183.868 279.784 183.116 283.157 181.613 285.939C180.121 288.721 178.085 290.845 175.505 292.313C172.936 293.769 170.048 294.497 166.84 294.497C163.608 294.497 160.708 293.763 158.14 292.295C155.571 290.828 153.541 288.703 152.05 285.921C150.558 283.139 149.812 279.772 149.812 275.818C149.812 271.853 150.558 268.479 152.05 265.697C153.541 262.916 155.571 260.797 158.14 259.341C160.708 257.873 163.608 257.139 166.84 257.139C170.048 257.139 172.936 257.873 175.505 259.341C178.085 260.797 180.121 262.916 181.613 265.697C183.116 268.479 183.868 271.853 183.868 275.818ZM176.073 275.818C176.073 273.25 175.688 271.083 174.919 269.32C174.161 267.556 173.09 266.218 171.705 265.307C170.32 264.395 168.698 263.94 166.84 263.94C164.982 263.94 163.36 264.395 161.975 265.307C160.59 266.218 159.513 267.556 158.743 269.32C157.986 271.083 157.607 273.25 157.607 275.818C157.607 278.387 157.986 280.553 158.743 282.317C159.513 284.08 160.59 285.418 161.975 286.33C163.36 287.241 164.982 287.697 166.84 287.697C168.698 287.697 170.32 287.241 171.705 286.33C173.09 285.418 174.161 284.08 174.919 282.317C175.688 280.553 176.073 278.387 176.073 275.818ZM212.024 257.636H219.712V281.251C219.712 283.903 219.079 286.223 217.812 288.212C216.557 290.2 214.8 291.751 212.539 292.864C210.278 293.964 207.644 294.515 204.637 294.515C201.619 294.515 198.979 293.964 196.718 292.864C194.458 291.751 192.7 290.2 191.445 288.212C190.19 286.223 189.563 283.903 189.563 281.251V257.636H197.251V280.594C197.251 281.979 197.553 283.21 198.157 284.288C198.772 285.365 199.636 286.211 200.749 286.827C201.862 287.442 203.158 287.75 204.637 287.75C206.129 287.75 207.425 287.442 208.526 286.827C209.639 286.211 210.497 285.365 211.1 284.288C211.716 283.21 212.024 281.979 212.024 280.594V257.636ZM245.764 268.094C245.622 266.662 245.012 265.549 243.935 264.756C242.858 263.963 241.396 263.567 239.55 263.567C238.295 263.567 237.235 263.744 236.371 264.099C235.507 264.443 234.844 264.922 234.383 265.538C233.933 266.153 233.708 266.852 233.708 267.633C233.684 268.284 233.82 268.852 234.116 269.337C234.424 269.823 234.844 270.243 235.377 270.598C235.91 270.941 236.525 271.243 237.224 271.504C237.922 271.752 238.668 271.965 239.461 272.143L242.728 272.924C244.314 273.279 245.77 273.753 247.096 274.344C248.421 274.936 249.57 275.664 250.54 276.528C251.511 277.393 252.263 278.411 252.795 279.582C253.34 280.754 253.618 282.098 253.63 283.613C253.618 285.838 253.05 287.768 251.925 289.401C250.813 291.023 249.203 292.284 247.096 293.183C245.001 294.071 242.473 294.515 239.514 294.515C236.578 294.515 234.022 294.065 231.844 293.165C229.677 292.266 227.985 290.934 226.765 289.17C225.558 287.395 224.925 285.199 224.866 282.583H232.305C232.388 283.802 232.737 284.82 233.353 285.637C233.98 286.442 234.815 287.052 235.856 287.466C236.91 287.868 238.099 288.07 239.425 288.07C240.727 288.07 241.858 287.88 242.817 287.501C243.787 287.123 244.539 286.596 245.072 285.921C245.604 285.246 245.871 284.471 245.871 283.595C245.871 282.778 245.628 282.092 245.143 281.536C244.669 280.979 243.971 280.506 243.047 280.115C242.136 279.724 241.017 279.369 239.692 279.05L235.732 278.055C232.666 277.31 230.246 276.144 228.47 274.558C226.694 272.971 225.813 270.835 225.824 268.148C225.813 265.946 226.398 264.022 227.582 262.377C228.778 260.732 230.417 259.447 232.501 258.524C234.584 257.601 236.951 257.139 239.603 257.139C242.302 257.139 244.657 257.601 246.67 258.524C248.694 259.447 250.268 260.732 251.393 262.377C252.517 264.022 253.097 265.928 253.133 268.094H245.764ZM257.416 263.975V257.636H287.281V263.975H276.148V294H268.549V263.975H257.416ZM299.888 257.636V294H292.2V257.636H299.888ZM338.298 270.367H330.521C330.379 269.361 330.089 268.467 329.651 267.686C329.213 266.893 328.651 266.218 327.964 265.662C327.277 265.106 326.484 264.679 325.585 264.384C324.697 264.088 323.732 263.94 322.691 263.94C320.808 263.94 319.169 264.407 317.772 265.342C316.375 266.266 315.292 267.615 314.523 269.391C313.753 271.154 313.369 273.297 313.369 275.818C313.369 278.411 313.753 280.589 314.523 282.352C315.304 284.116 316.393 285.448 317.79 286.347C319.187 287.247 320.802 287.697 322.637 287.697C323.667 287.697 324.62 287.561 325.496 287.288C326.384 287.016 327.171 286.62 327.857 286.099C328.544 285.566 329.112 284.921 329.562 284.163C330.024 283.406 330.343 282.542 330.521 281.571L338.298 281.607C338.097 283.276 337.593 284.885 336.789 286.436C335.995 287.975 334.924 289.354 333.575 290.573C332.237 291.781 330.639 292.739 328.781 293.45C326.934 294.148 324.845 294.497 322.513 294.497C319.27 294.497 316.369 293.763 313.813 292.295C311.268 290.828 309.255 288.703 307.776 285.921C306.308 283.139 305.574 279.772 305.574 275.818C305.574 271.853 306.32 268.479 307.811 265.697C309.303 262.916 311.327 260.797 313.884 259.341C316.441 257.873 319.317 257.139 322.513 257.139C324.62 257.139 326.573 257.435 328.372 258.027C330.183 258.619 331.787 259.483 333.184 260.619C334.581 261.744 335.717 263.123 336.593 264.756C337.481 266.39 338.049 268.26 338.298 270.367Z" fill="#016833"/>
<path d="M428.327 318.711H424.283C424.21 318.188 424.059 317.723 423.831 317.317C423.603 316.904 423.311 316.554 422.954 316.264C422.597 315.975 422.184 315.753 421.717 315.599C421.255 315.446 420.753 315.369 420.212 315.369C419.233 315.369 418.38 315.612 417.654 316.098C416.928 316.578 416.365 317.28 415.964 318.203C415.564 319.12 415.364 320.234 415.364 321.545C415.364 322.893 415.564 324.026 415.964 324.943C416.371 325.86 416.937 326.553 417.663 327.021C418.39 327.488 419.23 327.722 420.184 327.722C420.719 327.722 421.215 327.652 421.67 327.51C422.132 327.368 422.541 327.162 422.898 326.891C423.255 326.614 423.551 326.279 423.785 325.885C424.025 325.491 424.191 325.042 424.283 324.537L428.327 324.555C428.223 325.423 427.961 326.26 427.543 327.067C427.13 327.867 426.573 328.584 425.871 329.218C425.176 329.846 424.345 330.344 423.379 330.714C422.418 331.077 421.332 331.259 420.119 331.259C418.433 331.259 416.925 330.877 415.595 330.114C414.272 329.35 413.225 328.246 412.456 326.799C411.693 325.353 411.311 323.601 411.311 321.545C411.311 319.483 411.699 317.729 412.474 316.283C413.25 314.836 414.303 313.734 415.632 312.977C416.962 312.214 418.457 311.832 420.119 311.832C421.215 311.832 422.231 311.986 423.166 312.294C424.108 312.602 424.942 313.051 425.668 313.642C426.395 314.227 426.986 314.944 427.441 315.793C427.903 316.643 428.198 317.615 428.327 318.711ZM430.214 315.387V312.091H445.744V315.387H439.955V331H436.003V315.387H430.214ZM448.041 331V312.091H455.502C456.936 312.091 458.158 312.365 459.167 312.913C460.177 313.454 460.946 314.208 461.475 315.175C462.011 316.135 462.279 317.243 462.279 318.499C462.279 319.754 462.008 320.862 461.466 321.822C460.924 322.783 460.14 323.531 459.112 324.066C458.09 324.602 456.853 324.869 455.4 324.869H450.645V321.665H454.754C455.523 321.665 456.157 321.533 456.656 321.268C457.161 320.998 457.536 320.625 457.782 320.151C458.035 319.671 458.161 319.12 458.161 318.499C458.161 317.871 458.035 317.323 457.782 316.855C457.536 316.381 457.161 316.015 456.656 315.756C456.151 315.492 455.511 315.359 454.735 315.359H452.039V331H448.041ZM481.992 321.545C481.992 323.607 481.601 325.362 480.819 326.808C480.044 328.255 478.985 329.36 477.643 330.123C476.307 330.88 474.806 331.259 473.137 331.259C471.457 331.259 469.949 330.877 468.613 330.114C467.278 329.35 466.222 328.246 465.446 326.799C464.671 325.353 464.283 323.601 464.283 321.545C464.283 319.483 464.671 317.729 465.446 316.283C466.222 314.836 467.278 313.734 468.613 312.977C469.949 312.214 471.457 311.832 473.137 311.832C474.806 311.832 476.307 312.214 477.643 312.977C478.985 313.734 480.044 314.836 480.819 316.283C481.601 317.729 481.992 319.483 481.992 321.545ZM477.939 321.545C477.939 320.21 477.739 319.083 477.338 318.166C476.944 317.249 476.387 316.554 475.667 316.08C474.947 315.606 474.104 315.369 473.137 315.369C472.171 315.369 471.328 315.606 470.608 316.08C469.887 316.554 469.327 317.249 468.927 318.166C468.533 319.083 468.336 320.21 468.336 321.545C468.336 322.881 468.533 324.008 468.927 324.925C469.327 325.842 469.887 326.537 470.608 327.011C471.328 327.485 472.171 327.722 473.137 327.722C474.104 327.722 474.947 327.485 475.667 327.011C476.387 326.537 476.944 325.842 477.338 324.925C477.739 324.008 477.939 322.881 477.939 321.545ZM484.693 312.091H488.682V323.983H488.839L497.01 312.091H500.509V331H496.511V319.099H496.373L488.156 331H484.693V312.091ZM502.832 315.387V312.091H518.362V315.387H512.573V331H508.621V315.387H502.832ZM520.66 331V312.091H533.401V315.387H524.658V319.893H532.746V323.189H524.658V327.704H533.438V331H520.66ZM535.295 331V327.787L535.83 327.741C536.52 327.685 537.077 327.424 537.501 326.956C537.926 326.482 538.243 325.728 538.452 324.694C538.668 323.654 538.806 322.256 538.868 320.502L539.182 312.091H552.016V331H548.129V315.295H542.893L542.598 321.878C542.499 323.995 542.247 325.725 541.841 327.067C541.441 328.409 540.801 329.4 539.92 330.04C539.046 330.68 537.849 331 536.329 331H535.295ZM557.683 319.08H562.189C563.691 319.08 564.983 319.323 566.067 319.81C567.156 320.29 567.996 320.97 568.587 321.85C569.178 322.73 569.471 323.768 569.464 324.962C569.471 326.15 569.178 327.199 568.587 328.11C567.996 329.015 567.156 329.723 566.067 330.234C564.983 330.745 563.691 331 562.189 331H555.126V312.091H559.114V327.787H562.189C562.909 327.787 563.515 327.658 564.008 327.399C564.5 327.134 564.873 326.787 565.125 326.356C565.383 325.919 565.51 325.442 565.503 324.925C565.51 324.174 565.226 323.54 564.654 323.023C564.088 322.5 563.266 322.238 562.189 322.238H557.683V319.08ZM572.387 331V312.091H576.385V319.893H584.501V312.091H588.49V331H584.501V323.189H576.385V331H572.387ZM594.157 319.08H598.663C600.165 319.08 601.457 319.323 602.541 319.81C603.63 320.29 604.47 320.97 605.061 321.85C605.652 322.73 605.945 323.768 605.939 324.962C605.945 326.15 605.652 327.199 605.061 328.11C604.47 329.015 603.63 329.723 602.541 330.234C601.457 330.745 600.165 331 598.663 331H591.6V312.091H595.588V327.787H598.663C599.383 327.787 599.989 327.658 600.482 327.399C600.974 327.134 601.347 326.787 601.599 326.356C601.858 325.919 601.984 325.442 601.978 324.925C601.984 324.174 601.701 323.54 601.128 323.023C600.562 322.5 599.74 322.238 598.663 322.238H594.157V319.08ZM611.469 312.091V331H607.48V312.091H611.469ZM614.498 331V312.091H627.24V315.387H618.496V319.893H626.584V323.189H618.496V327.704H627.277V331H614.498ZM647.355 331L641.28 322.94H639.914V331H635.916V312.091H639.914V319.643H640.717L646.995 312.091H651.972L644.595 320.862L652.314 331H647.355ZM670.374 321.545C670.374 323.607 669.983 325.362 669.201 326.808C668.426 328.255 667.367 329.36 666.025 330.123C664.69 330.88 663.188 331.259 661.52 331.259C659.839 331.259 658.331 330.877 656.995 330.114C655.66 329.35 654.604 328.246 653.829 326.799C653.053 325.353 652.665 323.601 652.665 321.545C652.665 319.483 653.053 317.729 653.829 316.283C654.604 314.836 655.66 313.734 656.995 312.977C658.331 312.214 659.839 311.832 661.52 311.832C663.188 311.832 664.69 312.214 666.025 312.977C667.367 313.734 668.426 314.836 669.201 316.283C669.983 317.729 670.374 319.483 670.374 321.545ZM666.321 321.545C666.321 320.21 666.121 319.083 665.721 318.166C665.327 317.249 664.77 316.554 664.049 316.08C663.329 315.606 662.486 315.369 661.52 315.369C660.553 315.369 659.71 315.606 658.99 316.08C658.27 316.554 657.709 317.249 657.309 318.166C656.915 319.083 656.718 320.21 656.718 321.545C656.718 322.881 656.915 324.008 657.309 324.925C657.709 325.842 658.27 326.537 658.99 327.011C659.71 327.485 660.553 327.722 661.52 327.722C662.486 327.722 663.329 327.485 664.049 327.011C664.77 326.537 665.327 325.842 665.721 324.925C666.121 324.008 666.321 322.881 666.321 321.545ZM673.076 331V312.091H677.073V319.893H685.189V312.091H689.178V331H685.189V323.189H677.073V331H673.076ZM708.898 318.711H704.854C704.78 318.188 704.629 317.723 704.401 317.317C704.174 316.904 703.881 316.554 703.524 316.264C703.167 315.975 702.755 315.753 702.287 315.599C701.825 315.446 701.324 315.369 700.782 315.369C699.803 315.369 698.951 315.612 698.225 316.098C697.498 316.578 696.935 317.28 696.535 318.203C696.135 319.12 695.935 320.234 695.935 321.545C695.935 322.893 696.135 324.026 696.535 324.943C696.941 325.86 697.507 326.553 698.234 327.021C698.96 327.488 699.8 327.722 700.754 327.722C701.29 327.722 701.785 327.652 702.241 327.51C702.703 327.368 703.112 327.162 703.469 326.891C703.826 326.614 704.121 326.279 704.355 325.885C704.595 325.491 704.762 325.042 704.854 324.537L708.898 324.555C708.793 325.423 708.532 326.26 708.113 327.067C707.701 327.867 707.144 328.584 706.442 329.218C705.746 329.846 704.915 330.344 703.949 330.714C702.989 331.077 701.902 331.259 700.69 331.259C699.003 331.259 697.495 330.877 696.166 330.114C694.842 329.35 693.796 328.246 693.026 326.799C692.263 325.353 691.882 323.601 691.882 321.545C691.882 319.483 692.269 317.729 693.045 316.283C693.82 314.836 694.873 313.734 696.203 312.977C697.532 312.214 699.028 311.832 700.69 311.832C701.785 311.832 702.801 311.986 703.737 312.294C704.678 312.602 705.512 313.051 706.239 313.642C706.965 314.227 707.556 314.944 708.012 315.793C708.473 316.643 708.769 317.615 708.898 318.711ZM710.785 315.387V312.091H726.314V315.387H720.525V331H716.574V315.387H710.785ZM728.612 331V312.091H736.072C737.506 312.091 738.728 312.365 739.738 312.913C740.747 313.454 741.517 314.208 742.046 315.175C742.581 316.135 742.849 317.243 742.849 318.499C742.849 319.754 742.578 320.862 742.037 321.822C741.495 322.783 740.71 323.531 739.682 324.066C738.66 324.602 737.423 324.869 735.971 324.869H731.216V321.665H735.324C736.094 321.665 736.728 321.533 737.226 321.268C737.731 320.998 738.106 320.625 738.353 320.151C738.605 319.671 738.731 319.12 738.731 318.499C738.731 317.871 738.605 317.323 738.353 316.855C738.106 316.381 737.731 316.015 737.226 315.756C736.722 315.492 736.081 315.359 735.306 315.359H732.61V331H728.612ZM747.226 331.259V328.009H748.251C748.762 328.009 749.175 327.947 749.488 327.824C749.802 327.695 750.052 327.507 750.236 327.261C750.427 327.008 750.587 326.694 750.716 326.319L750.947 325.7L744.078 312.091H748.214L752.665 321.398L756.385 312.091H760.466L753.948 327.288C753.634 327.99 753.262 328.643 752.831 329.246C752.406 329.849 751.861 330.335 751.197 330.705C750.532 331.074 749.682 331.259 748.648 331.259H747.226ZM773.809 331L767.734 322.94H766.367V331H762.369V312.091H766.367V319.643H767.17L773.449 312.091H778.425L771.048 320.862L778.767 331H773.809ZM798.734 327.805L798.503 335.469H794.699V331H793.37V327.805H798.734ZM780.517 331V312.091H784.358V327.787H792.225V312.091H796.112V331H780.517ZM800.9 312.091H804.889V323.983H805.046L813.217 312.091H816.716V331H812.718V319.099H812.58L804.362 331H800.9V312.091ZM819.759 312.091H823.748V323.983H823.905L832.076 312.091H835.575V331H831.577V319.099H831.439L823.222 331H819.759V312.091Z" fill="#016833"/>
<path d="M26.6225 321.184H22.734C22.663 320.681 22.518 320.234 22.299 319.843C22.08 319.446 21.7989 319.109 21.4556 318.831C21.1123 318.553 20.7158 318.34 20.266 318.192C19.8221 318.044 19.3397 317.97 18.8189 317.97C17.8778 317.97 17.0581 318.204 16.3597 318.671C15.6613 319.133 15.1198 319.808 14.7351 320.695C14.3504 321.577 14.158 322.648 14.158 323.909C14.158 325.205 14.3504 326.294 14.7351 327.176C15.1257 328.058 15.6702 328.724 16.3686 329.174C17.067 329.623 17.8749 329.848 18.7923 329.848C19.3072 329.848 19.7836 329.78 20.2216 329.644C20.6655 329.508 21.0591 329.31 21.4023 329.049C21.7456 328.783 22.0297 328.46 22.2546 328.082C22.4854 327.703 22.6452 327.271 22.734 326.786L26.6225 326.803C26.5219 327.638 26.2704 328.443 25.8679 329.218C25.4714 329.987 24.9357 330.677 24.261 331.287C23.5922 331.89 22.7932 332.37 21.864 332.725C20.9407 333.074 19.8961 333.249 18.7301 333.249C17.1084 333.249 15.6584 332.882 14.38 332.148C13.1075 331.414 12.1013 330.351 11.3615 328.961C10.6276 327.57 10.2607 325.886 10.2607 323.909C10.2607 321.926 10.6335 320.24 11.3793 318.849C12.125 317.458 13.1371 316.398 14.4155 315.67C15.6939 314.937 17.1321 314.57 18.7301 314.57C19.7836 314.57 20.7602 314.718 21.6598 315.013C22.5653 315.309 23.3673 315.741 24.0657 316.31C24.7641 316.872 25.3323 317.561 25.7702 318.378C26.2141 319.195 26.4982 320.13 26.6225 321.184ZM46.0872 323.909C46.0872 325.892 45.7114 327.579 44.9597 328.969C44.214 330.36 43.196 331.423 41.9057 332.157C40.6214 332.885 39.1773 333.249 37.5733 333.249C35.9576 333.249 34.5075 332.882 33.2232 332.148C31.9389 331.414 30.9238 330.351 30.1781 328.961C29.4324 327.57 29.0595 325.886 29.0595 323.909C29.0595 321.926 29.4324 320.24 30.1781 318.849C30.9238 317.458 31.9389 316.398 33.2232 315.67C34.5075 314.937 35.9576 314.57 37.5733 314.57C39.1773 314.57 40.6214 314.937 41.9057 315.67C43.196 316.398 44.214 317.458 44.9597 318.849C45.7114 320.24 46.0872 321.926 46.0872 323.909ZM42.1898 323.909C42.1898 322.625 41.9975 321.542 41.6127 320.66C41.234 319.778 40.6983 319.109 40.0059 318.653C39.3134 318.198 38.5025 317.97 37.5733 317.97C36.6441 317.97 35.8333 318.198 35.1408 318.653C34.4483 319.109 33.9097 319.778 33.525 320.66C33.1462 321.542 32.9569 322.625 32.9569 323.909C32.9569 325.193 33.1462 326.277 33.525 327.158C33.9097 328.04 34.4483 328.709 35.1408 329.165C35.8333 329.621 36.6441 329.848 37.5733 329.848C38.5025 329.848 39.3134 329.621 40.0059 329.165C40.6983 328.709 41.234 328.04 41.6127 327.158C41.9975 326.277 42.1898 325.193 42.1898 323.909ZM64.1425 314.818V333H60.8222L52.912 321.556H52.7789V333H48.9347V314.818H52.3083L60.1563 326.253H60.3161V314.818H64.1425ZM77.1818 320.047C77.1108 319.331 76.806 318.775 76.2674 318.378C75.7288 317.982 74.9979 317.783 74.0746 317.783C73.4472 317.783 72.9175 317.872 72.4854 318.05C72.0534 318.221 71.7219 318.461 71.4911 318.769C71.2662 319.077 71.1538 319.426 71.1538 319.816C71.1419 320.142 71.21 320.426 71.358 320.669C71.5118 320.911 71.7219 321.121 71.9883 321.299C72.2546 321.471 72.5624 321.622 72.9116 321.752C73.2608 321.876 73.6336 321.983 74.0302 322.071L75.6637 322.462C76.4568 322.64 77.1848 322.876 77.8477 323.172C78.5105 323.468 79.0846 323.832 79.57 324.264C80.0553 324.696 80.4311 325.205 80.6974 325.791C80.9697 326.377 81.1088 327.049 81.1147 327.806C81.1088 328.919 80.8247 329.884 80.2624 330.701C79.7061 331.511 78.9012 332.142 77.8477 332.592C76.8001 333.036 75.5365 333.257 74.0568 333.257C72.589 333.257 71.3106 333.033 70.2216 332.583C69.1385 332.133 68.2921 331.467 67.6825 330.585C67.0788 329.697 66.7622 328.6 66.7326 327.292H70.4524C70.4938 327.901 70.6684 328.41 70.9762 328.819C71.2899 329.221 71.7071 329.526 72.228 329.733C72.7547 329.934 73.3496 330.035 74.0124 330.035C74.6635 330.035 75.2287 329.94 75.7081 329.751C76.1934 329.561 76.5692 329.298 76.8356 328.961C77.1019 328.623 77.2351 328.236 77.2351 327.798C77.2351 327.389 77.1138 327.046 76.8711 326.768C76.6344 326.49 76.2852 326.253 75.8235 326.058C75.3678 325.862 74.8085 325.685 74.1456 325.525L72.1658 325.028C70.6329 324.655 69.4226 324.072 68.5348 323.279C67.647 322.486 67.2061 321.417 67.212 320.074C67.2061 318.973 67.4991 318.011 68.0909 317.189C68.6887 316.366 69.5084 315.724 70.5501 315.262C71.5917 314.8 72.7754 314.57 74.1012 314.57C75.4506 314.57 76.6284 314.8 77.6346 315.262C78.6467 315.724 79.4338 316.366 79.9961 317.189C80.5584 318.011 80.8484 318.964 80.8661 320.047H77.1818ZM83.0079 317.988V314.818H97.9404V317.988H92.374V333H88.5743V317.988H83.0079ZM100.4 333V314.818H107.573C108.946 314.818 110.118 315.064 111.089 315.555C112.065 316.04 112.808 316.73 113.317 317.624C113.832 318.511 114.089 319.556 114.089 320.757C114.089 321.965 113.829 323.004 113.308 323.874C112.787 324.738 112.033 325.401 111.044 325.862C110.062 326.324 108.872 326.555 107.475 326.555H102.672V323.465H106.854C107.588 323.465 108.197 323.365 108.683 323.163C109.168 322.962 109.529 322.66 109.766 322.258C110.008 321.855 110.13 321.355 110.13 320.757C110.13 320.154 110.008 319.645 109.766 319.23C109.529 318.816 109.165 318.502 108.674 318.289C108.188 318.07 107.576 317.961 106.836 317.961H104.244V333H100.4ZM110.218 324.726L114.737 333H110.494L106.073 324.726H110.218ZM128.036 314.818H131.88V326.626C131.88 327.951 131.564 329.112 130.93 330.106C130.303 331.1 129.424 331.875 128.294 332.432C127.163 332.982 125.846 333.257 124.343 333.257C122.834 333.257 121.514 332.982 120.384 332.432C119.253 331.875 118.374 331.1 117.747 330.106C117.12 329.112 116.806 327.951 116.806 326.626V314.818H120.65V326.297C120.65 326.99 120.801 327.605 121.103 328.144C121.41 328.682 121.843 329.106 122.399 329.413C122.955 329.721 123.603 329.875 124.343 329.875C125.089 329.875 125.737 329.721 126.287 329.413C126.844 329.106 127.273 328.682 127.575 328.144C127.882 327.605 128.036 326.99 128.036 326.297V314.818ZM151.085 321.184H147.197C147.126 320.681 146.981 320.234 146.762 319.843C146.543 319.446 146.262 319.109 145.919 318.831C145.575 318.553 145.179 318.34 144.729 318.192C144.285 318.044 143.803 317.97 143.282 317.97C142.341 317.97 141.521 318.204 140.823 318.671C140.124 319.133 139.583 319.808 139.198 320.695C138.813 321.577 138.621 322.648 138.621 323.909C138.621 325.205 138.813 326.294 139.198 327.176C139.589 328.058 140.133 328.724 140.831 329.174C141.53 329.623 142.338 329.848 143.255 329.848C143.77 329.848 144.247 329.78 144.684 329.644C145.128 329.508 145.522 329.31 145.865 329.049C146.209 328.783 146.493 328.46 146.718 328.082C146.948 327.703 147.108 327.271 147.197 326.786L151.085 326.803C150.985 327.638 150.733 328.443 150.331 329.218C149.934 329.987 149.399 330.677 148.724 331.287C148.055 331.89 147.256 332.37 146.327 332.725C145.404 333.074 144.359 333.249 143.193 333.249C141.571 333.249 140.121 332.882 138.843 332.148C137.57 331.414 136.564 330.351 135.824 328.961C135.09 327.57 134.724 325.886 134.724 323.909C134.724 321.926 135.096 320.24 135.842 318.849C136.588 317.458 137.6 316.398 138.878 315.67C140.157 314.937 141.595 314.57 143.193 314.57C144.247 314.57 145.223 314.718 146.123 315.013C147.028 315.309 147.83 315.741 148.529 316.31C149.227 316.872 149.795 317.561 150.233 318.378C150.677 319.195 150.961 320.13 151.085 321.184ZM153.15 317.988V314.818H168.082V317.988H162.516V333H158.716V317.988H153.15ZM174.385 314.818V333H170.541V314.818H174.385ZM194.256 323.909C194.256 325.892 193.88 327.579 193.129 328.969C192.383 330.36 191.365 331.423 190.075 332.157C188.79 332.885 187.346 333.249 185.742 333.249C184.127 333.249 182.676 332.882 181.392 332.148C180.108 331.414 179.093 330.351 178.347 328.961C177.601 327.57 177.228 325.886 177.228 323.909C177.228 321.926 177.601 320.24 178.347 318.849C179.093 317.458 180.108 316.398 181.392 315.67C182.676 314.937 184.127 314.57 185.742 314.57C187.346 314.57 188.79 314.937 190.075 315.67C191.365 316.398 192.383 317.458 193.129 318.849C193.88 320.24 194.256 321.926 194.256 323.909ZM190.359 323.909C190.359 322.625 190.166 321.542 189.782 320.66C189.403 319.778 188.867 319.109 188.175 318.653C187.482 318.198 186.671 317.97 185.742 317.97C184.813 317.97 184.002 318.198 183.31 318.653C182.617 319.109 182.079 319.778 181.694 320.66C181.315 321.542 181.126 322.625 181.126 323.909C181.126 325.193 181.315 326.277 181.694 327.158C182.079 328.04 182.617 328.709 183.31 329.165C184.002 329.621 184.813 329.848 185.742 329.848C186.671 329.848 187.482 329.621 188.175 329.165C188.867 328.709 189.403 328.04 189.782 327.158C190.166 326.277 190.359 325.193 190.359 323.909ZM212.311 314.818V333H208.991L201.081 321.556H200.948V333H197.104V314.818H200.477L208.325 326.253H208.485V314.818H212.311ZM225.351 320.047C225.28 319.331 224.975 318.775 224.436 318.378C223.898 317.982 223.167 317.783 222.244 317.783C221.616 317.783 221.086 317.872 220.654 318.05C220.222 318.221 219.891 318.461 219.66 318.769C219.435 319.077 219.323 319.426 219.323 319.816C219.311 320.142 219.379 320.426 219.527 320.669C219.681 320.911 219.891 321.121 220.157 321.299C220.424 321.471 220.731 321.622 221.081 321.752C221.43 321.876 221.803 321.983 222.199 322.071L223.833 322.462C224.626 322.64 225.354 322.876 226.017 323.172C226.679 323.468 227.254 323.832 227.739 324.264C228.224 324.696 228.6 325.205 228.866 325.791C229.139 326.377 229.278 327.049 229.284 327.806C229.278 328.919 228.994 329.884 228.431 330.701C227.875 331.511 227.07 332.142 226.017 332.592C224.969 333.036 223.705 333.257 222.226 333.257C220.758 333.257 219.48 333.033 218.391 332.583C217.307 332.133 216.461 331.467 215.851 330.585C215.248 329.697 214.931 328.6 214.902 327.292H218.621C218.663 327.901 218.837 328.41 219.145 328.819C219.459 329.221 219.876 329.526 220.397 329.733C220.924 329.934 221.518 330.035 222.181 330.035C222.832 330.035 223.398 329.94 223.877 329.751C224.362 329.561 224.738 329.298 225.005 328.961C225.271 328.623 225.404 328.236 225.404 327.798C225.404 327.389 225.283 327.046 225.04 326.768C224.803 326.49 224.454 326.253 223.992 326.058C223.537 325.862 222.977 325.685 222.315 325.525L220.335 325.028C218.802 324.655 217.592 324.072 216.704 323.279C215.816 322.486 215.375 321.417 215.381 320.074C215.375 318.973 215.668 318.011 216.26 317.189C216.858 316.366 217.677 315.724 218.719 315.262C219.761 314.8 220.944 314.57 222.27 314.57C223.62 314.57 224.797 314.8 225.804 315.262C226.816 315.724 227.603 316.366 228.165 317.189C228.727 318.011 229.017 318.964 229.035 320.047H225.351ZM247.519 320.047C247.448 319.331 247.143 318.775 246.604 318.378C246.066 317.982 245.335 317.783 244.411 317.783C243.784 317.783 243.254 317.872 242.822 318.05C242.39 318.221 242.059 318.461 241.828 318.769C241.603 319.077 241.491 319.426 241.491 319.816C241.479 320.142 241.547 320.426 241.695 320.669C241.849 320.911 242.059 321.121 242.325 321.299C242.592 321.471 242.899 321.622 243.248 321.752C243.598 321.876 243.971 321.983 244.367 322.071L246.001 322.462C246.794 322.64 247.522 322.876 248.185 323.172C248.847 323.468 249.422 323.832 249.907 324.264C250.392 324.696 250.768 325.205 251.034 325.791C251.307 326.377 251.446 327.049 251.452 327.806C251.446 328.919 251.162 329.884 250.599 330.701C250.043 331.511 249.238 332.142 248.185 332.592C247.137 333.036 245.873 333.257 244.394 333.257C242.926 333.257 241.648 333.033 240.559 332.583C239.475 332.133 238.629 331.467 238.019 330.585C237.416 329.697 237.099 328.6 237.07 327.292H240.789C240.831 327.901 241.005 328.41 241.313 328.819C241.627 329.221 242.044 329.526 242.565 329.733C243.092 329.934 243.686 330.035 244.349 330.035C245 330.035 245.566 329.94 246.045 329.751C246.53 329.561 246.906 329.298 247.172 328.961C247.439 328.623 247.572 328.236 247.572 327.798C247.572 327.389 247.451 327.046 247.208 326.768C246.971 326.49 246.622 326.253 246.16 326.058C245.705 325.862 245.145 325.685 244.483 325.525L242.503 325.028C240.97 324.655 239.759 324.072 238.872 323.279C237.984 322.486 237.543 321.417 237.549 320.074C237.543 318.973 237.836 318.011 238.428 317.189C239.026 316.366 239.845 315.724 240.887 315.262C241.929 314.8 243.112 314.57 244.438 314.57C245.788 314.57 246.965 314.8 247.972 315.262C248.984 315.724 249.771 316.366 250.333 317.189C250.895 318.011 251.185 318.964 251.203 320.047H247.519ZM252.972 314.818H257.278L261.424 322.648H261.601L265.747 314.818H270.053L263.421 326.572V333H259.604V326.572L252.972 314.818ZM282.016 320.047C281.945 319.331 281.64 318.775 281.101 318.378C280.563 317.982 279.832 317.783 278.909 317.783C278.281 317.783 277.751 317.872 277.319 318.05C276.887 318.221 276.556 318.461 276.325 318.769C276.1 319.077 275.988 319.426 275.988 319.816C275.976 320.142 276.044 320.426 276.192 320.669C276.346 320.911 276.556 321.121 276.822 321.299C277.089 321.471 277.396 321.622 277.746 321.752C278.095 321.876 278.468 321.983 278.864 322.071L280.498 322.462C281.291 322.64 282.019 322.876 282.682 323.172C283.345 323.468 283.919 323.832 284.404 324.264C284.889 324.696 285.265 325.205 285.531 325.791C285.804 326.377 285.943 327.049 285.949 327.806C285.943 328.919 285.659 329.884 285.096 330.701C284.54 331.511 283.735 332.142 282.682 332.592C281.634 333.036 280.37 333.257 278.891 333.257C277.423 333.257 276.145 333.033 275.056 332.583C273.972 332.133 273.126 331.467 272.517 330.585C271.913 329.697 271.596 328.6 271.567 327.292H275.286C275.328 327.901 275.502 328.41 275.81 328.819C276.124 329.221 276.541 329.526 277.062 329.733C277.589 329.934 278.184 330.035 278.846 330.035C279.497 330.035 280.063 329.94 280.542 329.751C281.027 329.561 281.403 329.298 281.67 328.961C281.936 328.623 282.069 328.236 282.069 327.798C282.069 327.389 281.948 327.046 281.705 326.768C281.468 326.49 281.119 326.253 280.657 326.058C280.202 325.862 279.642 325.685 278.98 325.525L277 325.028C275.467 324.655 274.257 324.072 273.369 323.279C272.481 322.486 272.04 321.417 272.046 320.074C272.04 318.973 272.333 318.011 272.925 317.189C273.523 316.366 274.342 315.724 275.384 315.262C276.426 314.8 277.609 314.57 278.935 314.57C280.285 314.57 281.462 314.8 282.469 315.262C283.481 315.724 284.268 316.366 284.83 317.189C285.392 318.011 285.682 318.964 285.7 320.047H282.016ZM287.842 317.988V314.818H302.774V317.988H297.208V333H293.408V317.988H287.842ZM305.234 333V314.818H317.485V317.988H309.078V322.32H316.855V325.489H309.078V329.831H317.521V333H305.234ZM320.541 314.818H325.282L330.289 327.034H330.502L335.509 314.818H340.25V333H336.521V321.166H336.37L331.665 332.911H329.126L324.421 321.121H324.27V333H320.541V314.818Z" fill="#016833"/>
<rect x="375" y="240" width="3" height="106" rx="1.5" fill="#016833"/>
</svg>
