<svg width="846" height="356" fill="none" xmlns="http://www.w3.org/2000/svg"><path d="M469.5 42.5c7 2.5 15 4 15 4v29l-15-.5V42.5zM489.5 47.837c22 4.663 38 7.437 38 7.437V77l-38-1.288V47.837zM532.5 56s16.5 2.5 32 4v16.703l-32 .297V56zM593.5 78v15.5l-24 4V79l24-1zM564.5 98.5l-32 5.797V79.5l32-.5v19.5zM484.5 79.5v34.211S469.5 116 464 117c0 0 4-14 5.5-38l15 .5zM527.5 79.5v25.808l-38 7.192v-33h38zM593.5 95v12c-6.5 1.5-11.5 3.01-16.1 4.31l-7.9 2.19V99.75l24-4.75zM564.6 100.731v14.019c-18.1 5.019-32.1 10.541-32.1 10.541v-18.103s16.5-3.188 32.1-6.457zM527.5 127.373C513.5 133 499 139 489.5 143.5v-28.251c8-1.5 38-7.089 38-7.089v19.213zM484.5 116.5v30.25c-15 7-35 18.75-40.5 22.25 5.9-9.5 14.5-26.5 19.5-48.5l21-4zM593.5 62v14l-24 .675V60.5l24 1.5z" fill="#fff"/><rect x="323" y="97" width="8" height="20" rx="4" fill="#fff"/><rect x="335.25" y="82" width="8" height="50" rx="4" fill="#fff"/><rect x="347.5" y="87" width="8" height="40" rx="4" fill="#fff"/><rect x="359.75" y="72" width="8" height="70" rx="4" fill="#fff"/><rect x="372" y="57" width="8" height="100" rx="4" fill="#fff"/><rect x="384.25" y="72" width="8" height="70" rx="4" fill="#fff"/><rect x="396.5" y="87" width="8" height="40" rx="4" fill="#fff"/><rect x="408.75" y="82" width="8" height="50" rx="4" fill="#fff"/><rect x="421" y="97" width="8" height="20" rx="4" fill="#fff"/><path d="M374.6 11.11c-2.6 2.39-13.6 11.1-21.7 15.4-15.7 8.3-33.5 13.5-52 14.9l-8.9.8.6 25.6c.4 15.1 1.2 29.6 2.1 35.3 5.3 33 17.8 58.4 38 77 10.2 9.5 26.9 19.2 38.4 22.4 5.7 1.6 6.4 1.6 11.4 0 26.3-8.5 49.9-29.3 62.8-55.4 9.6-19.6 13.5-37.2 15.1-67.7.6-11.6.9-24.6.7-29l-.3-8-11-1.2c-26.5-2.9-50.8-12.9-69.3-28.5-3.6-3.1-4.149-3.21-5.9-1.6zm8.2 18.3c13.5 9.7 37 19.1 55 22.2l10.7 1.8-.5 23c-.6 30.4-3.6 45.2-13.3 64.8-11.7 23.9-30.4 40.9-53.3 48.8l-5.3 1.9-7.2-2.9c-22.1-8.9-38.8-24.8-50.1-47.6-9.9-20.1-13.7-39.1-13.9-69.5l-.1-18.5 8-1.2c21.2-3.2 41.6-11.2 58-22.7 2.8-1.9 5.5-3.5 6-3.5.6-.1 3.2 1.5 6 3.4zM284 42.5c-7 2.5-15 4-15 4v29l15-.5V42.5zM264 47.837c-22 4.663-38 7.437-38 7.437V77l38-1.288V47.837zM221 56s-16.5 2.5-32 4v16.703L221 77V56zM160 78v15.5l24 4V79l-24-1zM189 98.5l32 5.797V79.5l-32-.5v19.5zM269 79.5v34.211S284 116 289.5 117c0 0-4-14-5.5-38l-15 .5zM226 79.5v25.808l38 7.192v-33h-38zM160 95v12c6.5 1.5 11.5 3.01 16.1 4.31l7.9 2.19V99.75L160 95zM188.9 100.731v14.019c18.1 5.019 32.1 10.541 32.1 10.541v-18.103s-16.5-3.188-32.1-6.457zM226 127.373C240 133 254.5 139 264 143.5v-28.251c-8-1.5-38-7.089-38-7.089v19.213zM269 116.5v30.25c15 7 35 18.75 40.5 22.25-5.9-9.5-14.5-26.5-19.5-48.5l-21-4zM160 62v14l24 .675V60.5L160 62zM418.674 292h-7.58l11.549-33.455h9.116L443.291 292h-7.579l-8.38-25.81h-.262L418.674 292zm-.474-13.15h17.904v5.521H418.2v-5.521zM467.097 292l-10.748-14.261h-2.418V292h-7.073v-33.455h7.073v13.363h1.421l11.108-13.363h8.805l-13.052 15.519L475.869 292h-8.772zm15.479.457v-5.75h1.813c.904 0 1.634-.109 2.189-.326.556-.229.997-.561 1.324-.997.337-.446.62-1.002.849-1.666l.408-1.094-12.153-24.079h7.318l7.874 16.466 6.583-16.466h7.22l-11.533 26.888a19.93 19.93 0 01-1.976 3.463 8.562 8.562 0 01-2.892 2.581c-1.176.654-2.679.98-4.508.98h-2.516zm54.288-22.199h-7.155c-.131-.926-.398-1.748-.8-2.467a6.295 6.295 0 00-1.552-1.862 6.832 6.832 0 00-2.189-1.176 8.385 8.385 0 00-2.663-.409c-1.731 0-3.24.431-4.525 1.291-1.285.849-2.281 2.091-2.989 3.724-.708 1.623-1.062 3.594-1.062 5.914 0 2.385.354 4.388 1.062 6.011.719 1.623 1.721 2.848 3.006 3.676 1.285.827 2.771 1.241 4.459 1.241.948 0 1.824-.125 2.63-.376a6.908 6.908 0 002.173-1.094 6.32 6.32 0 001.568-1.781c.425-.697.719-1.492.882-2.385l7.155.033a12.923 12.923 0 01-1.389 4.443 13.333 13.333 0 01-2.956 3.806c-1.231 1.111-2.701 1.993-4.411 2.647-1.699.642-3.621.963-5.766.963-2.984 0-5.652-.675-8.004-2.025-2.342-1.351-4.193-3.305-5.554-5.865-1.351-2.559-2.026-5.657-2.026-9.294 0-3.648.686-6.752 2.058-9.311 1.372-2.56 3.235-4.509 5.587-5.848 2.352-1.351 4.998-2.026 7.939-2.026 1.938 0 3.735.272 5.39.817 1.667.544 3.142 1.339 4.427 2.385a12.265 12.265 0 013.137 3.806c.816 1.503 1.339 3.223 1.568 5.162zm3.338-5.881v-5.832h27.476v5.832h-10.243V292h-6.991v-27.623h-10.242zm31.54-5.832h7.057v21.04h.278l14.457-21.04h6.191V292h-7.073v-21.056h-.246L577.868 292h-6.126v-33.455zm34.722 0h6.878v10.782c0 1.285.223 2.319.669 3.103.447.774 1.138 1.334 2.075 1.683.947.338 2.162.506 3.643.506.522 0 1.138-.016 1.846-.049a54.815 54.815 0 002.188-.179 36.656 36.656 0 002.157-.278 11.96 11.96 0 001.682-.376v5.587c-.457.152-1.029.288-1.715.408-.675.109-1.388.207-2.14.294-.751.077-1.481.136-2.189.18-.708.044-1.318.065-1.829.065-2.69 0-5.032-.381-7.025-1.143-1.992-.773-3.533-1.966-4.622-3.578-1.079-1.611-1.618-3.686-1.618-6.223v-10.782zm19.913 0h6.91V292h-6.91v-33.455zM639.822 292v-33.455h22.543v5.832h-15.469v7.972h14.309v5.831h-14.309v7.988h15.534V292h-22.608zm57.224-21.742h-7.155c-.13-.926-.397-1.748-.8-2.467a6.28 6.28 0 00-1.552-1.862 6.821 6.821 0 00-2.189-1.176 8.378 8.378 0 00-2.662-.409c-1.732 0-3.24.431-4.525 1.291-1.285.849-2.282 2.091-2.99 3.724-.708 1.623-1.061 3.594-1.061 5.914 0 2.385.353 4.388 1.061 6.011.719 1.623 1.721 2.848 3.006 3.676 1.285.827 2.772 1.241 4.46 1.241.947 0 1.824-.125 2.63-.376a6.914 6.914 0 002.172-1.094 6.304 6.304 0 001.568-1.781c.425-.697.719-1.492.882-2.385l7.155.033a12.943 12.943 0 01-1.388 4.443 13.337 13.337 0 01-2.957 3.806c-1.231 1.111-2.701 1.993-4.41 2.647-1.699.642-3.621.963-5.767.963-2.984 0-5.652-.675-8.004-2.025-2.341-1.351-4.193-3.305-5.554-5.865-1.35-2.559-2.026-5.657-2.026-9.294 0-3.648.686-6.752 2.059-9.311 1.372-2.56 3.234-4.509 5.586-5.848 2.353-1.351 4.999-2.026 7.939-2.026 1.939 0 3.736.272 5.391.817 1.666.544 3.142 1.339 4.427 2.385a12.262 12.262 0 013.136 3.806c.817 1.503 1.34 3.223 1.568 5.162zM721.898 292l-10.749-14.261h-2.418V292h-7.073v-33.455h7.073v13.363h1.422l11.108-13.363h8.804l-13.052 15.519L730.67 292h-8.772zm11.869-33.455h7.056v21.04h.278l14.457-21.04h6.191V292h-7.073v-21.056h-.245L739.892 292h-6.125v-33.455zM767.133 292v-33.455h22.542v5.832h-15.469v7.972h14.31v5.831h-14.31v7.988h15.535V292h-22.608zM83.428 294H75.19l12.553-36.364h9.908L110.186 294h-8.239l-9.108-28.054h-.284L83.428 294zm-.515-14.293h19.461v6.001h-19.46v-6.001zm62.025-9.34h-7.777c-.142-1.006-.432-1.9-.87-2.681a6.822 6.822 0 00-1.686-2.024 7.415 7.415 0 00-2.38-1.278c-.887-.296-1.852-.444-2.894-.444-1.882 0-3.521.467-4.918 1.402-1.397.924-2.48 2.273-3.249 4.049-.77 1.763-1.155 3.906-1.155 6.427 0 2.593.385 4.771 1.155 6.534.781 1.764 1.87 3.096 3.267 3.995 1.396.9 3.012 1.35 4.847 1.35 1.03 0 1.983-.136 2.859-.409a7.513 7.513 0 002.361-1.189 6.854 6.854 0 001.705-1.936c.461-.757.781-1.621.958-2.592l7.777.036a14.061 14.061 0 01-1.509 4.829c-.793 1.539-1.864 2.918-3.214 4.137-1.337 1.208-2.935 2.166-4.794 2.877-1.846.698-3.936 1.047-6.267 1.047-3.244 0-6.144-.734-8.701-2.202-2.545-1.467-4.557-3.592-6.037-6.374-1.467-2.782-2.201-6.149-2.201-10.103 0-3.965.745-7.339 2.237-10.121 1.491-2.781 3.516-4.9 6.072-6.356 2.557-1.468 5.434-2.202 8.63-2.202 2.107 0 4.06.296 5.859.888 1.811.592 3.415 1.456 4.812 2.592a13.345 13.345 0 013.409 4.137c.888 1.634 1.456 3.504 1.704 5.611zm38.93 5.451c0 3.966-.752 7.339-2.255 10.121-1.492 2.782-3.528 4.906-6.108 6.374-2.569 1.456-5.457 2.184-8.665 2.184-3.232 0-6.132-.734-8.7-2.202-2.569-1.467-4.599-3.592-6.09-6.374-1.492-2.782-2.238-6.149-2.238-10.103 0-3.965.746-7.339 2.238-10.121 1.491-2.781 3.521-4.9 6.09-6.356 2.568-1.468 5.468-2.202 8.7-2.202 3.208 0 6.096.734 8.665 2.202 2.58 1.456 4.616 3.575 6.108 6.356 1.503 2.782 2.255 6.156 2.255 10.121zm-7.795 0c0-2.568-.385-4.735-1.154-6.498-.758-1.764-1.829-3.102-3.214-4.013-1.385-.912-3.007-1.367-4.865-1.367s-3.48.455-4.865 1.367c-1.385.911-2.462 2.249-3.232 4.013-.757 1.763-1.136 3.93-1.136 6.498 0 2.569.379 4.735 1.136 6.499.77 1.763 1.847 3.101 3.232 4.013 1.385.911 3.007 1.367 4.865 1.367s3.48-.456 4.865-1.367c1.385-.912 2.456-2.25 3.214-4.013.769-1.764 1.154-3.93 1.154-6.499zm35.951-18.182h7.688v23.615c0 2.652-.633 4.972-1.9 6.961-1.255 1.988-3.012 3.539-5.273 4.652-2.261 1.1-4.895 1.651-7.902 1.651-3.018 0-5.658-.551-7.919-1.651-2.26-1.113-4.018-2.664-5.273-4.652-1.255-1.989-1.882-4.309-1.882-6.961v-23.615h7.688v22.958c0 1.385.302 2.616.906 3.694a6.601 6.601 0 002.592 2.539c1.113.615 2.409.923 3.888.923 1.492 0 2.788-.308 3.889-.923 1.113-.616 1.971-1.462 2.574-2.539.616-1.078.924-2.309.924-3.694v-22.958zm33.74 10.458c-.142-1.432-.752-2.545-1.829-3.338-1.077-.793-2.539-1.189-4.385-1.189-1.255 0-2.315.177-3.179.532-.864.344-1.527.823-1.988 1.439a3.46 3.46 0 00-.675 2.095c-.024.651.112 1.219.408 1.704.308.486.728.906 1.261 1.261a9.626 9.626 0 001.847.906c.698.248 1.444.461 2.237.639l3.267.781c1.586.355 3.042.829 4.368 1.42 1.325.592 2.474 1.32 3.444 2.184a9.08 9.08 0 012.255 3.054c.545 1.172.823 2.516.835 4.031-.012 2.225-.58 4.155-1.705 5.788-1.112 1.622-2.722 2.883-4.829 3.782-2.095.888-4.623 1.332-7.582 1.332-2.936 0-5.492-.45-7.67-1.35-2.167-.899-3.859-2.231-5.079-3.995-1.207-1.775-1.84-3.971-1.899-6.587h7.439c.083 1.219.432 2.237 1.048 3.054.627.805 1.462 1.415 2.503 1.829 1.054.402 2.243.604 3.569.604 1.302 0 2.433-.19 3.392-.569.97-.378 1.722-.905 2.255-1.58.532-.675.799-1.45.799-2.326 0-.817-.243-1.503-.728-2.059-.474-.557-1.172-1.03-2.096-1.421-.911-.391-2.03-.746-3.355-1.065l-3.96-.995c-3.066-.745-5.486-1.911-7.262-3.497-1.776-1.587-2.657-3.723-2.646-6.41-.011-2.202.574-4.126 1.758-5.771 1.196-1.645 2.835-2.93 4.919-3.853 2.083-.923 4.45-1.385 7.102-1.385 2.699 0 5.054.462 7.067 1.385 2.024.923 3.598 2.208 4.723 3.853 1.124 1.645 1.704 3.551 1.74 5.717h-7.369zm11.652-4.119v-6.339h29.865v6.339h-11.133V294h-7.599v-30.025h-11.133zm42.472-6.339V294H292.2v-36.364h7.688zm38.41 12.731h-7.777c-.142-1.006-.432-1.9-.87-2.681a6.81 6.81 0 00-1.687-2.024 7.42 7.42 0 00-2.379-1.278c-.888-.296-1.853-.444-2.894-.444-1.883 0-3.522.467-4.919 1.402-1.397.924-2.48 2.273-3.249 4.049-.77 1.763-1.154 3.906-1.154 6.427 0 2.593.384 4.771 1.154 6.534.781 1.764 1.87 3.096 3.267 3.995 1.397.9 3.012 1.35 4.847 1.35 1.03 0 1.983-.136 2.859-.409a7.492 7.492 0 002.361-1.189 6.854 6.854 0 001.705-1.936c.462-.757.781-1.621.959-2.592l7.777.036a14.083 14.083 0 01-1.509 4.829c-.794 1.539-1.865 2.918-3.214 4.137-1.338 1.208-2.936 2.166-4.794 2.877-1.847.698-3.936 1.047-6.268 1.047-3.243 0-6.144-.734-8.7-2.202-2.545-1.467-4.558-3.592-6.037-6.374-1.468-2.782-2.202-6.149-2.202-10.103 0-3.965.746-7.339 2.237-10.121 1.492-2.781 3.516-4.9 6.073-6.356 2.557-1.468 5.433-2.202 8.629-2.202 2.107 0 4.06.296 5.859.888 1.811.592 3.415 1.456 4.812 2.592a13.345 13.345 0 013.409 4.137c.888 1.634 1.456 3.504 1.705 5.611zM428.327 318.711h-4.044a3.93 3.93 0 00-.452-1.394 3.553 3.553 0 00-.877-1.053 3.876 3.876 0 00-1.237-.665 4.762 4.762 0 00-1.505-.23c-.979 0-1.832.243-2.558.729-.726.48-1.289 1.182-1.69 2.105-.4.917-.6 2.031-.6 3.342 0 1.348.2 2.481.6 3.398.407.917.973 1.61 1.699 2.078.727.467 1.567.701 2.521.701a4.97 4.97 0 001.486-.212 3.91 3.91 0 001.228-.619c.357-.277.653-.612.887-1.006.24-.394.406-.843.498-1.348l4.044.018a7.32 7.32 0 01-.784 2.512c-.413.8-.97 1.517-1.672 2.151-.695.628-1.526 1.126-2.492 1.496-.961.363-2.047.545-3.26.545-1.686 0-3.194-.382-4.524-1.145-1.323-.764-2.37-1.868-3.139-3.315-.763-1.446-1.145-3.198-1.145-5.254 0-2.062.388-3.816 1.163-5.262.776-1.447 1.829-2.549 3.158-3.306 1.33-.763 2.825-1.145 4.487-1.145 1.096 0 2.112.154 3.047.462a7.722 7.722 0 012.502 1.348 6.926 6.926 0 011.773 2.151c.462.85.757 1.822.886 2.918zm1.887-3.324v-3.296h15.53v3.296h-5.789V331h-3.952v-15.613h-5.789zM448.041 331v-18.909h7.461c1.434 0 2.656.274 3.665.822 1.01.541 1.779 1.295 2.308 2.262.536.96.804 2.068.804 3.324 0 1.255-.271 2.363-.813 3.323-.542.961-1.326 1.709-2.354 2.244-1.022.536-2.259.803-3.712.803h-4.755v-3.204h4.109c.769 0 1.403-.132 1.902-.397.505-.27.88-.643 1.126-1.117.253-.48.379-1.031.379-1.652 0-.628-.126-1.176-.379-1.644a2.527 2.527 0 00-1.126-1.099c-.505-.264-1.145-.397-1.921-.397h-2.696V331h-3.998zm33.951-9.455c0 2.062-.391 3.817-1.173 5.263-.775 1.447-1.834 2.552-3.176 3.315-1.336.757-2.837 1.136-4.506 1.136-1.68 0-3.188-.382-4.524-1.145-1.335-.764-2.391-1.868-3.167-3.315-.775-1.446-1.163-3.198-1.163-5.254 0-2.062.388-3.816 1.163-5.262.776-1.447 1.832-2.549 3.167-3.306 1.336-.763 2.844-1.145 4.524-1.145 1.669 0 3.17.382 4.506 1.145 1.342.757 2.401 1.859 3.176 3.306.782 1.446 1.173 3.2 1.173 5.262zm-4.053 0c0-1.335-.2-2.462-.601-3.379-.394-.917-.951-1.612-1.671-2.086-.72-.474-1.563-.711-2.53-.711-.966 0-1.809.237-2.529.711-.721.474-1.281 1.169-1.681 2.086-.394.917-.591 2.044-.591 3.379 0 1.336.197 2.463.591 3.38.4.917.96 1.612 1.681 2.086.72.474 1.563.711 2.529.711.967 0 1.81-.237 2.53-.711.72-.474 1.277-1.169 1.671-2.086.401-.917.601-2.044.601-3.38zm6.754-9.454h3.989v11.892h.157l8.171-11.892h3.499V331h-3.998v-11.901h-.138L488.156 331h-3.463v-18.909zm18.139 3.296v-3.296h15.53v3.296h-5.789V331h-3.952v-15.613h-5.789zM520.66 331v-18.909h12.741v3.296h-8.743v4.506h8.088v3.296h-8.088v4.515h8.78V331H520.66zm14.635 0v-3.213l.535-.046c.69-.056 1.247-.317 1.671-.785.425-.474.742-1.228.951-2.262.216-1.04.354-2.438.416-4.192l.314-8.411h12.834V331h-3.887v-15.705h-5.236l-.295 6.583c-.099 2.117-.351 3.847-.757 5.189-.4 1.342-1.04 2.333-1.921 2.973-.874.64-2.071.96-3.591.96h-1.034zm22.388-11.92h4.506c1.502 0 2.794.243 3.878.73 1.089.48 1.929 1.16 2.52 2.04.591.88.884 1.918.877 3.112.007 1.188-.286 2.237-.877 3.148-.591.905-1.431 1.613-2.52 2.124-1.084.511-2.376.766-3.878.766h-7.063v-18.909h3.988v15.696h3.075c.72 0 1.326-.129 1.819-.388.492-.265.865-.612 1.117-1.043.258-.437.385-.914.378-1.431.007-.751-.277-1.385-.849-1.902-.566-.523-1.388-.785-2.465-.785h-4.506v-3.158zM572.387 331v-18.909h3.998v7.802h8.116v-7.802h3.989V331h-3.989v-7.811h-8.116V331h-3.998zm21.77-11.92h4.506c1.502 0 2.794.243 3.878.73 1.089.48 1.929 1.16 2.52 2.04.591.88.884 1.918.878 3.112.006 1.188-.287 2.237-.878 3.148-.591.905-1.431 1.613-2.52 2.124-1.084.511-2.376.766-3.878.766H591.6v-18.909h3.988v15.696h3.075c.72 0 1.326-.129 1.819-.388.492-.265.865-.612 1.117-1.043.259-.437.385-.914.379-1.431.006-.751-.277-1.385-.85-1.902-.566-.523-1.388-.785-2.465-.785h-4.506v-3.158zm17.312-6.989V331h-3.989v-18.909h3.989zM614.498 331v-18.909h12.742v3.296h-8.744v4.506h8.088v3.296h-8.088v4.515h8.781V331h-12.779zm32.857 0l-6.075-8.06h-1.366V331h-3.998v-18.909h3.998v7.552h.803l6.278-7.552h4.977l-7.377 8.771L652.314 331h-4.959zm23.019-9.455c0 2.062-.391 3.817-1.173 5.263-.775 1.447-1.834 2.552-3.176 3.315-1.335.757-2.837 1.136-4.505 1.136-1.681 0-3.189-.382-4.525-1.145-1.335-.764-2.391-1.868-3.166-3.315-.776-1.446-1.164-3.198-1.164-5.254 0-2.062.388-3.816 1.164-5.262.775-1.447 1.831-2.549 3.166-3.306 1.336-.763 2.844-1.145 4.525-1.145 1.668 0 3.17.382 4.505 1.145 1.342.757 2.401 1.859 3.176 3.306.782 1.446 1.173 3.2 1.173 5.262zm-4.053 0c0-1.335-.2-2.462-.6-3.379-.394-.917-.951-1.612-1.672-2.086-.72-.474-1.563-.711-2.529-.711-.967 0-1.81.237-2.53.711-.72.474-1.281 1.169-1.681 2.086-.394.917-.591 2.044-.591 3.379 0 1.336.197 2.463.591 3.38.4.917.961 1.612 1.681 2.086.72.474 1.563.711 2.53.711.966 0 1.809-.237 2.529-.711.721-.474 1.278-1.169 1.672-2.086.4-.917.6-2.044.6-3.38zm6.755 9.455v-18.909h3.997v7.802h8.116v-7.802h3.989V331h-3.989v-7.811h-8.116V331h-3.997zm35.822-12.289h-4.044a3.952 3.952 0 00-.453-1.394 3.538 3.538 0 00-.877-1.053 3.865 3.865 0 00-1.237-.665 4.758 4.758 0 00-1.505-.23c-.979 0-1.831.243-2.557.729-.727.48-1.29 1.182-1.69 2.105-.4.917-.6 2.031-.6 3.342 0 1.348.2 2.481.6 3.398.406.917.972 1.61 1.699 2.078.726.467 1.566.701 2.52.701.536 0 1.031-.07 1.487-.212a3.91 3.91 0 001.228-.619c.357-.277.652-.612.886-1.006.24-.394.407-.843.499-1.348l4.044.018a7.321 7.321 0 01-.785 2.512 7.535 7.535 0 01-1.671 2.151c-.696.628-1.527 1.126-2.493 1.496-.96.363-2.047.545-3.259.545-1.687 0-3.195-.382-4.524-1.145-1.324-.764-2.37-1.868-3.14-3.315-.763-1.446-1.144-3.198-1.144-5.254 0-2.062.387-3.816 1.163-5.262.775-1.447 1.828-2.549 3.158-3.306 1.329-.763 2.825-1.145 4.487-1.145 1.095 0 2.111.154 3.047.462a7.743 7.743 0 012.502 1.348 6.954 6.954 0 011.773 2.151c.461.85.757 1.822.886 2.918zm1.887-3.324v-3.296h15.529v3.296h-5.789V331h-3.951v-15.613h-5.789zM728.612 331v-18.909h7.46c1.434 0 2.656.274 3.666.822 1.009.541 1.779 1.295 2.308 2.262.535.96.803 2.068.803 3.324 0 1.255-.271 2.363-.812 3.323-.542.961-1.327 1.709-2.355 2.244-1.022.536-2.259.803-3.711.803h-4.755v-3.204h4.108c.77 0 1.404-.132 1.902-.397a2.63 2.63 0 001.127-1.117c.252-.48.378-1.031.378-1.652 0-.628-.126-1.176-.378-1.644a2.535 2.535 0 00-1.127-1.099c-.504-.264-1.145-.397-1.92-.397h-2.696V331h-3.998zm18.614.259v-3.25h1.025c.511 0 .924-.062 1.237-.185.314-.129.564-.317.748-.563.191-.253.351-.567.48-.942l.231-.619-6.869-13.609h4.136l4.451 9.307 3.72-9.307h4.081l-6.518 15.197a11.268 11.268 0 01-1.117 1.958 4.866 4.866 0 01-1.634 1.459c-.665.369-1.515.554-2.549.554h-1.422zm26.583-.259l-6.075-8.06h-1.367V331h-3.998v-18.909h3.998v7.552h.803l6.279-7.552h4.976l-7.377 8.771L778.767 331h-4.958zm24.925-3.195l-.231 7.664h-3.804V331h-1.329v-3.195h5.364zM780.517 331v-18.909h3.841v15.696h7.867v-15.696h3.887V331h-15.595zm20.383-18.909h3.989v11.892h.157l8.171-11.892h3.499V331h-3.998v-11.901h-.138L804.362 331H800.9v-18.909zm18.859 0h3.989v11.892h.157l8.171-11.892h3.499V331h-3.998v-11.901h-.138L823.222 331h-3.463v-18.909zM26.622 321.184h-3.888a3.807 3.807 0 00-.435-1.341 3.402 3.402 0 00-.843-1.012 3.715 3.715 0 00-1.19-.639 4.55 4.55 0 00-1.447-.222c-.941 0-1.76.234-2.46.701-.698.462-1.24 1.137-1.624 2.024-.385.882-.577 1.953-.577 3.214 0 1.296.192 2.385.577 3.267.39.882.935 1.548 1.634 1.998.698.449 1.506.674 2.423.674.515 0 .992-.068 1.43-.204a3.74 3.74 0 001.18-.595 3.43 3.43 0 00.853-.967c.23-.379.39-.811.479-1.296l3.888.017c-.1.835-.352 1.64-.754 2.415a7.27 7.27 0 01-1.607 2.069c-.669.603-1.468 1.083-2.397 1.438-.923.349-1.968.524-3.134.524-1.622 0-3.072-.367-4.35-1.101-1.273-.734-2.279-1.797-3.019-3.187-.733-1.391-1.1-3.075-1.1-5.052 0-1.983.373-3.669 1.118-5.06.746-1.391 1.758-2.451 3.037-3.179 1.278-.733 2.716-1.1 4.314-1.1 1.054 0 2.03.148 2.93.443a7.417 7.417 0 012.406 1.297 6.659 6.659 0 011.704 2.068c.444.817.728 1.752.852 2.806zm19.465 2.725c0 1.983-.376 3.67-1.127 5.06-.746 1.391-1.764 2.454-3.054 3.188-1.285.728-2.729 1.092-4.333 1.092-1.615 0-3.066-.367-4.35-1.101-1.284-.734-2.3-1.797-3.045-3.187-.746-1.391-1.119-3.075-1.119-5.052 0-1.983.373-3.669 1.12-5.06.745-1.391 1.76-2.451 3.044-3.179 1.285-.733 2.735-1.1 4.35-1.1 1.604 0 3.048.367 4.333 1.1 1.29.728 2.308 1.788 3.054 3.179.751 1.391 1.127 3.077 1.127 5.06zm-3.897 0c0-1.284-.192-2.367-.577-3.249-.379-.882-.915-1.551-1.607-2.007-.693-.455-1.504-.683-2.433-.683-.929 0-1.74.228-2.432.683-.693.456-1.231 1.125-1.616 2.007-.379.882-.568 1.965-.568 3.249s.19 2.368.568 3.249c.385.882.923 1.551 1.616 2.007.692.456 1.503.683 2.432.683.93 0 1.74-.227 2.433-.683.692-.456 1.228-1.125 1.607-2.007.385-.881.577-1.965.577-3.249zm21.953-9.091V333h-3.32l-7.911-11.444h-.133V333h-3.844v-18.182h3.373l7.848 11.435h.16v-11.435h3.826zm13.039 5.229c-.071-.716-.376-1.272-.915-1.669-.538-.396-1.27-.595-2.192-.595-.628 0-1.157.089-1.59.267-.432.171-.763.411-.994.719a1.73 1.73 0 00-.337 1.047c-.012.326.056.61.204.853.154.242.364.452.63.63.267.172.574.323.924.453.349.124.722.231 1.118.319l1.634.391a11.55 11.55 0 012.184.71 6.64 6.64 0 011.722 1.092c.485.432.861.941 1.127 1.527.273.586.412 1.258.418 2.015-.006 1.113-.29 2.078-.853 2.895-.556.81-1.36 1.441-2.414 1.891-1.048.444-2.311.665-3.791.665-1.468 0-2.746-.224-3.835-.674-1.084-.45-1.93-1.116-2.54-1.998-.603-.888-.92-1.985-.95-3.293h3.72c.042.609.216 1.118.524 1.527.314.402.731.707 1.252.914.527.201 1.122.302 1.784.302.651 0 1.217-.095 1.696-.284.485-.19.861-.453 1.128-.79.266-.338.4-.725.4-1.163 0-.409-.122-.752-.365-1.03-.237-.278-.586-.515-1.047-.71a10.598 10.598 0 00-1.678-.533l-1.98-.497c-1.533-.373-2.743-.956-3.631-1.749-.888-.793-1.329-1.862-1.323-3.205-.006-1.101.287-2.063.879-2.885.598-.823 1.417-1.465 2.46-1.927 1.04-.462 2.224-.692 3.55-.692 1.35 0 2.527.23 3.534.692 1.012.462 1.799 1.104 2.361 1.927.562.822.852 1.775.87 2.858h-3.684zm5.826-2.059v-3.17H97.94v3.17h-5.566V333h-3.8v-15.012h-5.566zM100.4 333v-18.182h7.173c1.373 0 2.545.246 3.516.737.976.485 1.719 1.175 2.228 2.069.515.887.772 1.932.772 3.133 0 1.208-.26 2.247-.781 3.117-.521.864-1.275 1.527-2.264 1.988-.982.462-2.172.693-3.569.693h-4.803v-3.09h4.182c.734 0 1.343-.1 1.829-.302.485-.201.846-.503 1.083-.905.242-.403.364-.903.364-1.501 0-.603-.122-1.112-.364-1.527-.237-.414-.601-.728-1.092-.941-.486-.219-1.098-.328-1.838-.328h-2.592V333H100.4zm9.818-8.274l4.519 8.274h-4.243l-4.421-8.274h4.145zm17.818-9.908h3.844v11.808c0 1.325-.316 2.486-.95 3.48-.627.994-1.506 1.769-2.636 2.326-1.131.55-2.448.825-3.951.825-1.509 0-2.829-.275-3.959-.825-1.131-.557-2.01-1.332-2.637-2.326-.627-.994-.941-2.155-.941-3.48v-11.808h3.844v11.479c0 .693.151 1.308.453 1.847.307.538.74.962 1.296 1.269.556.308 1.204.462 1.944.462.746 0 1.394-.154 1.944-.462a3.237 3.237 0 001.288-1.269c.307-.539.461-1.154.461-1.847v-11.479zm23.049 6.366h-3.888a3.807 3.807 0 00-.435-1.341 3.405 3.405 0 00-.843-1.012 3.723 3.723 0 00-1.19-.639 4.549 4.549 0 00-1.447-.222c-.941 0-1.761.234-2.459.701-.699.462-1.24 1.137-1.625 2.024-.385.882-.577 1.953-.577 3.214 0 1.296.192 2.385.577 3.267.391.882.935 1.548 1.633 1.998.699.449 1.507.674 2.424.674.515 0 .992-.068 1.429-.204a3.74 3.74 0 001.181-.595c.344-.266.628-.589.853-.967.23-.379.39-.811.479-1.296l3.888.017c-.1.835-.352 1.64-.754 2.415a7.273 7.273 0 01-1.607 2.069c-.669.603-1.468 1.083-2.397 1.438-.923.349-1.968.524-3.134.524-1.622 0-3.072-.367-4.35-1.101-1.273-.734-2.279-1.797-3.019-3.187-.734-1.391-1.1-3.075-1.1-5.052 0-1.983.372-3.669 1.118-5.06.746-1.391 1.758-2.451 3.036-3.179 1.279-.733 2.717-1.1 4.315-1.1 1.054 0 2.03.148 2.93.443a7.429 7.429 0 012.406 1.297 6.664 6.664 0 011.704 2.068c.444.817.728 1.752.852 2.806zm2.065-3.196v-3.17h14.932v3.17h-5.566V333h-3.8v-15.012h-5.566zm21.235-3.17V333h-3.844v-18.182h3.844zm19.871 9.091c0 1.983-.376 3.67-1.127 5.06-.746 1.391-1.764 2.454-3.054 3.188-1.285.728-2.729 1.092-4.333 1.092-1.615 0-3.066-.367-4.35-1.101-1.284-.734-2.299-1.797-3.045-3.187-.746-1.391-1.119-3.075-1.119-5.052 0-1.983.373-3.669 1.119-5.06.746-1.391 1.761-2.451 3.045-3.179 1.284-.733 2.735-1.1 4.35-1.1 1.604 0 3.048.367 4.333 1.1 1.29.728 2.308 1.788 3.054 3.179.751 1.391 1.127 3.077 1.127 5.06zm-3.897 0c0-1.284-.193-2.367-.577-3.249-.379-.882-.915-1.551-1.607-2.007-.693-.455-1.504-.683-2.433-.683-.929 0-1.74.228-2.432.683-.693.456-1.231 1.125-1.616 2.007-.379.882-.568 1.965-.568 3.249s.189 2.368.568 3.249c.385.882.923 1.551 1.616 2.007.692.456 1.503.683 2.432.683s1.74-.227 2.433-.683c.692-.456 1.228-1.125 1.607-2.007.384-.881.577-1.965.577-3.249zm21.952-9.091V333h-3.32l-7.91-11.444h-.133V333h-3.844v-18.182h3.373l7.848 11.435h.16v-11.435h3.826zm13.04 5.229c-.071-.716-.376-1.272-.915-1.669-.538-.396-1.269-.595-2.192-.595-.628 0-1.158.089-1.59.267-.432.171-.763.411-.994.719a1.73 1.73 0 00-.337 1.047c-.012.326.056.61.204.853.154.242.364.452.63.63.267.172.574.323.924.453.349.124.722.231 1.118.319l1.634.391c.793.178 1.521.414 2.184.71.662.296 1.237.66 1.722 1.092.485.432.861.941 1.127 1.527.273.586.412 1.258.418 2.015-.006 1.113-.29 2.078-.853 2.895-.556.81-1.361 1.441-2.414 1.891-1.048.444-2.312.665-3.791.665-1.468 0-2.746-.224-3.835-.674-1.084-.45-1.93-1.116-2.54-1.998-.603-.888-.92-1.985-.949-3.293h3.719c.042.609.216 1.118.524 1.527.314.402.731.707 1.252.914.527.201 1.121.302 1.784.302.651 0 1.217-.095 1.696-.284.485-.19.861-.453 1.128-.79.266-.338.399-.725.399-1.163 0-.409-.121-.752-.364-1.03-.237-.278-.586-.515-1.048-.71a10.59 10.59 0 00-1.677-.533l-1.98-.497c-1.533-.373-2.743-.956-3.631-1.749-.888-.793-1.329-1.862-1.323-3.205-.006-1.101.287-2.063.879-2.885.598-.823 1.417-1.465 2.459-1.927 1.042-.462 2.225-.692 3.551-.692 1.35 0 2.527.23 3.534.692 1.012.462 1.799 1.104 2.361 1.927.562.822.852 1.775.87 2.858h-3.684zm22.168 0c-.071-.716-.376-1.272-.915-1.669-.538-.396-1.269-.595-2.193-.595-.627 0-1.157.089-1.589.267-.432.171-.763.411-.994.719a1.73 1.73 0 00-.337 1.047c-.012.326.056.61.204.853.154.242.364.452.63.63.267.172.574.323.923.453.35.124.723.231 1.119.319l1.634.391c.793.178 1.521.414 2.184.71.662.296 1.237.66 1.722 1.092.485.432.861.941 1.127 1.527.273.586.412 1.258.418 2.015-.006 1.113-.29 2.078-.853 2.895-.556.81-1.361 1.441-2.414 1.891-1.048.444-2.312.665-3.791.665-1.468 0-2.746-.224-3.835-.674-1.084-.45-1.93-1.116-2.54-1.998-.603-.888-.92-1.985-.949-3.293h3.719c.042.609.216 1.118.524 1.527.314.402.731.707 1.252.914.527.201 1.121.302 1.784.302.651 0 1.217-.095 1.696-.284.485-.19.861-.453 1.127-.79.267-.338.4-.725.4-1.163 0-.409-.121-.752-.364-1.03-.237-.278-.586-.515-1.048-.71a10.59 10.59 0 00-1.677-.533l-1.98-.497c-1.533-.373-2.744-.956-3.631-1.749-.888-.793-1.329-1.862-1.323-3.205-.006-1.101.287-2.063.879-2.885.598-.823 1.417-1.465 2.459-1.927 1.042-.462 2.225-.692 3.551-.692 1.35 0 2.527.23 3.534.692 1.012.462 1.799 1.104 2.361 1.927.562.822.852 1.775.87 2.858h-3.684zm5.453-5.229h4.306l4.146 7.83h.177l4.146-7.83h4.306l-6.632 11.754V333h-3.817v-6.428l-6.632-11.754zm29.044 5.229c-.071-.716-.376-1.272-.915-1.669-.538-.396-1.269-.595-2.192-.595-.628 0-1.158.089-1.59.267-.432.171-.763.411-.994.719a1.73 1.73 0 00-.337 1.047c-.012.326.056.61.204.853.154.242.364.452.63.63.267.172.574.323.924.453.349.124.722.231 1.118.319l1.634.391c.793.178 1.521.414 2.184.71.663.296 1.237.66 1.722 1.092.485.432.861.941 1.127 1.527.273.586.412 1.258.418 2.015-.006 1.113-.29 2.078-.853 2.895-.556.81-1.361 1.441-2.414 1.891-1.048.444-2.312.665-3.791.665-1.468 0-2.746-.224-3.835-.674-1.084-.45-1.93-1.116-2.539-1.998-.604-.888-.921-1.985-.95-3.293h3.719c.042.609.216 1.118.524 1.527.314.402.731.707 1.252.914.527.201 1.122.302 1.784.302.651 0 1.217-.095 1.696-.284.485-.19.861-.453 1.128-.79.266-.338.399-.725.399-1.163 0-.409-.121-.752-.364-1.03-.237-.278-.586-.515-1.048-.71a10.59 10.59 0 00-1.677-.533l-1.98-.497c-1.533-.373-2.743-.956-3.631-1.749-.888-.793-1.329-1.862-1.323-3.205-.006-1.101.287-2.063.879-2.885.598-.823 1.417-1.465 2.459-1.927 1.042-.462 2.225-.692 3.551-.692 1.35 0 2.527.23 3.534.692 1.012.462 1.799 1.104 2.361 1.927.562.822.852 1.775.87 2.858h-3.684zm5.826-2.059v-3.17h14.932v3.17h-5.566V333h-3.8v-15.012h-5.566zM305.234 333v-18.182h12.251v3.17h-8.407v4.332h7.777v3.169h-7.777v4.342h8.443V333h-12.287zm15.307-18.182h4.741l5.007 12.216h.213l5.007-12.216h4.741V333h-3.729v-11.834h-.151l-4.705 11.745h-2.539l-4.705-11.79h-.151V333h-3.729v-18.182z" fill="#fff"/><rect x="375" y="240" width="3" height="106" rx="1.5" fill="#fff"/></svg>